/* XPM */
static char * colorComboBoxButton[] = {
"21 18 5 1",
" 	c None",
".	c #FFFFFF",
"+	c #808080",
"@	c #D4D0C8",
"#	c #000000",
"....................+",
".@@@@@@@@@@@@@@@@@@@+",
".@++++++++++++++++ @+",
".@+                @+",
".@+                @+",
".@+                @+",
".@+                @+",
".@+                @+",
".@+                @+",
".@+                @+",
".@+                @+",
".@+                @+",
".@+          @@@@@@@+",
".@+          @#####@+",
".@+          @@###@@+",
".@           @@@#@@@+",
".@@@@@@@@@@@@@@@@@@@+",
"+++++++++++++++++++++"};
