/* XPM */
static char *c:\asa\Cursor_33[] = {
/* width height num_colors chars_per_pixel */
"    32    32   2            1",
/* colors */
". c #000000000000",
"# c #ff00ff00ff00",
/* pixels */
"################################",
"################################",
"################################",
"################################",
"################################",
"#########.######################",
"#########.######################",
"#########.######################",
"#########.###...################",
"#########...#.#.################",
"#########.###...################",
"#########.######################",
"#########.####.#################",
"#########.####.###...###########",
"#########.####...#.#.###########",
"#########.########...###########",
"#########.######################",
"#########.#########.############",
"#########.#########.###...######",
"#########.#########...#.#.######",
"#########.#############...######",
"#########.######################",
"#########.######################",
"#########.###...################",
"#########...#.#.################",
"#########.###...################",
"#########.######################",
"#########.####.#################",
"#########.####.###...###########",
"#########.####...#.#.###########",
"#########.########...###########",
"################################"
};
