/* XPM */
static char *c:\asa\Cursor_67[] = {
/* width height num_colors chars_per_pixel */
"    32    32   256            2",
/* colors */
".. c #000000000000",
".# c #800000000000",
".a c #000080000000",
".b c #800080000000",
".c c #000000008000",
".d c #800000008000",
".e c #000080008000",
".f c #c000c000c000",
".g c #c000dc00c000",
".h c #a600ca00f000",
".i c #040004000400",
".j c #080008000800",
".k c #0c000c000c00",
".l c #110011001100",
".m c #160016001600",
".n c #1c001c001c00",
".o c #220022002200",
".p c #290029002900",
".q c #550055005500",
".r c #4d004d004d00",
".s c #420042004200",
".t c #390039003900",
".u c #ff007c008000",
".v c #ff0050005000",
".w c #d60000009300",
".x c #cc00ec00ff00",
".y c #ef00d600c600",
".z c #e700e700d600",
".A c #ad00a9009000",
".B c #330000000000",
".C c #660000000000",
".D c #990000000000",
".E c #cc0000000000",
".F c #000033000000",
".G c #330033000000",
".H c #660033000000",
".I c #990033000000",
".J c #cc0033000000",
".K c #ff0033000000",
".L c #000066000000",
".M c #330066000000",
".N c #660066000000",
".O c #990066000000",
".P c #cc0066000000",
".Q c #ff0066000000",
".R c #000099000000",
".S c #330099000000",
".T c #660099000000",
".U c #990099000000",
".V c #cc0099000000",
".W c #ff0099000000",
".X c #0000cc000000",
".Y c #3300cc000000",
".Z c #6600cc000000",
".0 c #9900cc000000",
".1 c #cc00cc000000",
".2 c #ff00cc000000",
".3 c #6600ff000000",
".4 c #9900ff000000",
".5 c #cc00ff000000",
".6 c #000000003300",
".7 c #330000003300",
".8 c #660000003300",
".9 c #990000003300",
"#. c #cc0000003300",
"## c #ff0000003300",
"#a c #000033003300",
"#b c #330033003300",
"#c c #660033003300",
"#d c #990033003300",
"#e c #cc0033003300",
"#f c #ff0033003300",
"#g c #000066003300",
"#h c #330066003300",
"#i c #660066003300",
"#j c #990066003300",
"#k c #cc0066003300",
"#l c #ff0066003300",
"#m c #000099003300",
"#n c #330099003300",
"#o c #660099003300",
"#p c #990099003300",
"#q c #cc0099003300",
"#r c #ff0099003300",
"#s c #0000cc003300",
"#t c #3300cc003300",
"#u c #6600cc003300",
"#v c #9900cc003300",
"#w c #cc00cc003300",
"#x c #ff00cc003300",
"#y c #3300ff003300",
"#z c #6600ff003300",
"#A c #9900ff003300",
"#B c #cc00ff003300",
"#C c #ff00ff003300",
"#D c #000000006600",
"#E c #330000006600",
"#F c #660000006600",
"#G c #990000006600",
"#H c #cc0000006600",
"#I c #ff0000006600",
"#J c #000033006600",
"#K c #330033006600",
"#L c #660033006600",
"#M c #990033006600",
"#N c #cc0033006600",
"#O c #ff0033006600",
"#P c #000066006600",
"#Q c #330066006600",
"#R c #660066006600",
"#S c #990066006600",
"#T c #cc0066006600",
"#U c #000099006600",
"#V c #330099006600",
"#W c #660099006600",
"#X c #990099006600",
"#Y c #cc0099006600",
"#Z c #ff0099006600",
"#0 c #0000cc006600",
"#1 c #3300cc006600",
"#2 c #9900cc006600",
"#3 c #cc00cc006600",
"#4 c #ff00cc006600",
"#5 c #0000ff006600",
"#6 c #3300ff006600",
"#7 c #9900ff006600",
"#8 c #cc00ff006600",
"#9 c #ff000000cc00",
"a. c #cc000000ff00",
"a# c #000099009900",
"aa c #990033009900",
"ab c #990000009900",
"ac c #cc0000009900",
"ad c #000000009900",
"ae c #330033009900",
"af c #660000009900",
"ag c #cc0033009900",
"ah c #ff0000009900",
"ai c #000066009900",
"aj c #330066009900",
"ak c #660033009900",
"al c #990066009900",
"am c #cc0066009900",
"an c #ff0033009900",
"ao c #330099009900",
"ap c #660099009900",
"aq c #990099009900",
"ar c #cc0099009900",
"as c #ff0099009900",
"at c #0000cc009900",
"au c #3300cc009900",
"av c #6600cc006600",
"aw c #9900cc009900",
"ax c #cc00cc009900",
"ay c #ff00cc009900",
"az c #0000ff009900",
"aA c #3300ff009900",
"aB c #6600cc009900",
"aC c #9900ff009900",
"aD c #cc00ff009900",
"aE c #ff00ff009900",
"aF c #00000000cc00",
"aG c #330000009900",
"aH c #66000000cc00",
"aI c #99000000cc00",
"aJ c #cc000000cc00",
"aK c #000033009900",
"aL c #33003300cc00",
"aM c #66003300cc00",
"aN c #99003300cc00",
"aO c #cc003300cc00",
"aP c #ff003300cc00",
"aQ c #00006600cc00",
"aR c #33006600cc00",
"aS c #660066009900",
"aT c #99006600cc00",
"aU c #cc006600cc00",
"aV c #ff0066009900",
"aW c #00009900cc00",
"aX c #33009900cc00",
"aY c #66009900cc00",
"aZ c #99009900cc00",
"a0 c #cc009900cc00",
"a1 c #ff009900cc00",
"a2 c #0000cc00cc00",
"a3 c #3300cc00cc00",
"a4 c #6600cc00cc00",
"a5 c #9900cc00cc00",
"a6 c #cc00cc00cc00",
"a7 c #ff00cc00cc00",
"a8 c #0000ff00cc00",
"a9 c #3300ff00cc00",
"b. c #6600ff009900",
"b# c #9900ff00cc00",
"ba c #cc00ff00cc00",
"bb c #ff00ff00cc00",
"bc c #33000000cc00",
"bd c #66000000ff00",
"be c #99000000ff00",
"bf c #00003300cc00",
"bg c #33003300ff00",
"bh c #66003300ff00",
"bi c #99003300ff00",
"bj c #cc003300ff00",
"bk c #ff003300ff00",
"bl c #00006600ff00",
"bm c #33006600ff00",
"bn c #66006600cc00",
"bo c #99006600ff00",
"bp c #cc006600ff00",
"bq c #ff006600cc00",
"br c #00009900ff00",
"bs c #33009900ff00",
"bt c #66009900ff00",
"bu c #99009900ff00",
"bv c #cc009900ff00",
"bw c #ff009900ff00",
"bx c #0000cc00ff00",
"by c #3300cc00ff00",
"bz c #6600cc00ff00",
"bA c #9900cc00ff00",
"bB c #cc00cc00ff00",
"bC c #ff00cc00ff00",
"bD c #3300ff00ff00",
"bE c #6600ff00cc00",
"bF c #9900ff00ff00",
"bG c #cc00ff00ff00",
"bH c #ff0066006600",
"bI c #6600ff006600",
"bJ c #ff00ff006600",
"bK c #66006600ff00",
"bL c #ff006600ff00",
"bM c #6600ff00ff00",
"bN c #a50000002100",
"bO c #5f005f005f00",
"bP c #770077007700",
"bQ c #860086008600",
"bR c #960096009600",
"bS c #cb00cb00cb00",
"bT c #b200b200b200",
"bU c #d700d700d700",
"bV c #dd00dd00dd00",
"bW c #e300e300e300",
"bX c #ea00ea00ea00",
"bY c #f100f100f100",
"bZ c #f800f800f800",
"b0 c #ff00fb00f000",
"b1 c #a000a000a400",
"b2 c #800080008000",
"b3 c #ff0000000000",
"b4 c #0000ff000000",
"b5 c #ff00ff000000",
"b6 c #00000000ff00",
"b7 c #ff000000ff00",
"b8 c #0000ff00ff00",
"b9 c #ff00ff00ff00",
/* pixels */
"................................................................",
"................................................................",
"................................................................",
"................................................................",
"................................................................",
"................................................................",
"................................................................",
"........................................b9b9....................",
"......................................b9.i.ib9..................",
"..................b9b9b9............b9.ib9b9.ib9................",
"................b9.i.i.ib9b9........b9.ib9b9.ib9................",
"..................b9b9.i.i.ib9b9..b9.i.i.i.ib9..................",
"......................b9b9.i.i.ib9.i.ib9b9b9....................",
"..........................b9b9.i.i.ib9..........................",
"......................b9b9.i.i.ib9.i.ib9b9b9....................",
"..................b9b9.i.i.ib9b9..b9.i.i.i.ib9..................",
"................b9.i.i.ib9b9........b9.ib9b9.ib9................",
"..................b9b9b9............b9.ib9b9.ib9................",
"......................................b9.i.ib9..................",
"........................................b9b9....................",
"................................................................",
"................................................................",
"................................................................",
"................................................................",
"................................................................",
"................................................................",
"................................................................",
"................................................................",
"................................................................",
"................................................................",
"................................................................",
"................................................................"
};
