/* XPM */
static char * delete_layer_xpm[] = {
"12 12 6 1",
" 	c None",
".	c #555555",
"+	c #000000",
"@	c #F8F8F8",
"#	c #B2B2B2",
"$	c #777777",
"    ...     ",
" +++++++++  ",
"+@@@@@@@@@+ ",
"+++++++++++#",
" +@@@@@@@+##",
" +@$@$@$@+# ",
" +@$@$@$@+# ",
" +@$@$@$@+# ",
" +@$@$@$@+# ",
" +@@@@@@@+# ",
" +++++++++# ",
"  ######### "};
