/* XPM */
static char * eye_dropper_tool_xpm[] = {
"16 15 14 1",
" 	c None",
".	c #333366",
"+	c #040404",
"@	c #555555",
"#	c #1C1C1C",
"$	c #FFFBFB",
"%	c #CC9999",
"&	c #ADADAD",
"*	c #0D0D0D",
"=	c #646464",
"-	c #8C8C8C",
";	c #CCCCCC",
">	c #CCCCFF",
",	c #000099",
"             .+@",
"            #$++",
"           .%@+@",
"        .+&@**+ ",
"        @++@+=  ",
"        .-@++   ",
"       .$;>@+   ",
"      .$$>+@+   ",
"     .$$>+      ",
"    .$$>+       ",
"   .$$>+        ",
"  &+$>+         ",
"  +$,@          ",
"  @+&           ",
"                "};
