/* XPM */
static char * fill_transform_tool_xpm[] = {
"16 15 25 1",
" 	c None",
".	c #7374AB",
"+	c #6C6CA4",
"@	c #040404",
"#	c #9C9C9C",
"$	c #C0C0C0",
"%	c #63639C",
"&	c #646464",
"*	c #8685BD",
"=	c #8988BF",
"-	c #9696CC",
";	c #8B8BC2",
">	c #8887BE",
",	c #9D9ED3",
"'	c #A5A6DB",
")	c #A1A1D6",
"!	c #ACABE1",
"~	c #AAAADE",
"{	c #BAB9ED",
"]	c #B4B4E9",
"^	c #C2C1F5",
"/	c #BEBEF2",
"(	c #CCCCFF",
"_	c #C5C6F9",
":	c #FFFBFB",
"..+++@   #@@@#$$",
"..+%+@  #@# #@#$",
"..+++@  @#   #&$",
"*....@  @   #@@&",
"=****@  @#   &@#",
"-;>>>@  #@#   @ ",
",----@   #@@  # ",
"'),,,@          ",
"!!!~~@  @@&     ",
"{]]]]@  @@      ",
"^^///@  & @     ",
"(((__@     @    ",
"(((((@      @ & ",
":::::@       @@ ",
"$@@@@@      &@@ "};
