/* XPM */
static char * free_transform_tool_xpm[] = {
"16 15 3 1",
" 	c None",
".	c #040404",
"+	c #5E5E5E",
"                ",
" ..    +.    +. ",
" ..++++..++++.. ",
"  +          +  ",
"  +          +  ",
"  +          +  ",
"  +          +  ",
" +.    ++    ++ ",
" ..    +.    +. ",
"  +          +  ",
"  +          +  ",
"  +          +  ",
"  +          +  ",
" +.++++++++++++ ",
" ..    +.    +. "};
