/* XPM */
static char * goz_pic_xpm[] = {
"21 15 14 1",
" 	c None",
".	c #8C8C8C",
"+	c #525252",
"@	c #0D0D0D",
"#	c #313131",
"$	c #5F5F5F",
"%	c #000000",
"&	c #424242",
"*	c #151616",
"=	c #FFFBFB",
"-	c #7F7F7F",
";	c #CCCCCC",
">	c #ADADAD",
",	c #DDDDDD",
"                     ",
"                     ",
"     ..+@##+$..      ",
"   ......+#%%++$.    ",
"        ....+@%%+.   ",
"      .$+&*@&.+%%+   ",
"    .$&&%%%%*#+.+#   ",
"   .$&+%=%%%&*#$-    ",
"   .+$-&+%%&+&%@$.   ",
"    .+.-$+&%$.+%$.   ",
"     .$;>.-.>,+$..   ",
"       .;,,=,.-.     ",
"                     ",
"                     ",
"                     "};
