/* XPM */
static char *hand_cursor_down[] = {
/* width height num_colors chars_per_pixel */
"    16    16   256            2",
/* colors */
".. c #ff00ff00ff00",
".# c #ff00ff00cc00",
".a c #ff00ff009900",
".b c #ff00ff006600",
".c c #ff00ff003300",
".d c #ff00ff000000",
".e c #ff00cc00ff00",
".f c #ff00cc00cc00",
".g c #ff00cc009900",
".h c #ff00cc006600",
".i c #ff00cc003300",
".j c #ff00cc000000",
".k c #ff009900ff00",
".l c #ff009900cc00",
".m c #ff0099009900",
".n c #ff0099006600",
".o c #ff0099003300",
".p c #ff0099000000",
".q c #ff006600ff00",
".r c #ff006600cc00",
".s c #ff0066009900",
".t c #ff0066006600",
".u c #ff0066003300",
".v c #ff0066000000",
".w c #ff003300ff00",
".x c #ff003300cc00",
".y c #ff0033009900",
".z c #ff0033006600",
".A c #ff0033003300",
".B c #ff0033000000",
".C c #ff000000ff00",
".D c #ff000000cc00",
".E c #ff0000009900",
".F c #ff0000006600",
".G c #ff0000003300",
".H c #ff0000000000",
".I c #cc00ff00ff00",
".J c #cc00ff00cc00",
".K c #cc00ff009900",
".L c #cc00ff006600",
".M c #cc00ff003300",
".N c #cc00ff000000",
".O c #cc00cc00ff00",
".P c #cc00cc00cc00",
".Q c #cc00cc009900",
".R c #cc00cc006600",
".S c #cc00cc003300",
".T c #cc00cc000000",
".U c #cc009900ff00",
".V c #cc009900cc00",
".W c #cc0099009900",
".X c #cc0099006600",
".Y c #cc0099003300",
".Z c #cc0099000000",
".0 c #cc006600ff00",
".1 c #cc006600cc00",
".2 c #cc0066009900",
".3 c #cc0066006600",
".4 c #cc0066003300",
".5 c #cc0066000000",
".6 c #cc003300ff00",
".7 c #cc003300cc00",
".8 c #cc0033009900",
".9 c #cc0033006600",
"#. c #cc0033003300",
"## c #cc0033000000",
"#a c #cc000000ff00",
"#b c none",
"#c c #cc0000009900",
"#d c #cc0000006600",
"#e c #cc0000003300",
"#f c #cc0000000000",
"#g c #9900ff00ff00",
"#h c #9900ff00cc00",
"#i c #9900ff009900",
"#j c #9900ff006600",
"#k c #9900ff003300",
"#l c #9900ff000000",
"#m c #9900cc00ff00",
"#n c #9900cc00cc00",
"#o c #9900cc009900",
"#p c #9900cc006600",
"#q c #9900cc003300",
"#r c #9900cc000000",
"#s c #99009900ff00",
"#t c #99009900cc00",
"#u c #990099009900",
"#v c #990099006600",
"#w c #990099003300",
"#x c #990099000000",
"#y c #99006600ff00",
"#z c #99006600cc00",
"#A c #990066009900",
"#B c #990066006600",
"#C c none",
"#D c #990066000000",
"#E c #99003300ff00",
"#F c #99003300cc00",
"#G c #990033009900",
"#H c #990033006600",
"#I c #990033003300",
"#J c #990033000000",
"#K c #99000000ff00",
"#L c #99000000cc00",
"#M c #990000009900",
"#N c #990000006600",
"#O c #990000003300",
"#P c #990000000000",
"#Q c #6600ff00ff00",
"#R c #6600ff00cc00",
"#S c #6600ff009900",
"#T c #6600ff006600",
"#U c #6600ff003300",
"#V c #6600ff000000",
"#W c #6600cc00ff00",
"#X c #6600cc00cc00",
"#Y c #6600cc009900",
"#Z c #6600cc006600",
"#0 c #6600cc003300",
"#1 c #6600cc000000",
"#2 c #66009900ff00",
"#3 c #66009900cc00",
"#4 c #660099009900",
"#5 c #660099006600",
"#6 c #660099003300",
"#7 c #660099000000",
"#8 c #66006600ff00",
"#9 c #66006600cc00",
"a. c #660066009900",
"a# c #660066006600",
"aa c #660066003300",
"ab c #660066000000",
"ac c #66003300ff00",
"ad c #66003300cc00",
"ae c #660033009900",
"af c #660033006600",
"ag c #660033003300",
"ah c #660033000000",
"ai c #66000000ff00",
"aj c #66000000cc00",
"ak c #660000009900",
"al c #660000006600",
"am c #660000003300",
"an c #660000000000",
"ao c #3300ff00ff00",
"ap c #3300ff00cc00",
"aq c #3300ff009900",
"ar c #3300ff006600",
"as c #3300ff003300",
"at c #3300ff000000",
"au c #3300cc00ff00",
"av c #3300cc00cc00",
"aw c #3300cc009900",
"ax c #3300cc006600",
"ay c #3300cc003300",
"az c #3300cc000000",
"aA c #33009900ff00",
"aB c #33009900cc00",
"aC c #330099009900",
"aD c #330099006600",
"aE c #330099003300",
"aF c #330099000000",
"aG c #33006600ff00",
"aH c #33006600cc00",
"aI c #330066009900",
"aJ c #330066006600",
"aK c #330066003300",
"aL c #330066000000",
"aM c #33003300ff00",
"aN c #33003300cc00",
"aO c #330033009900",
"aP c #330033006600",
"aQ c #330033003300",
"aR c #330033000000",
"aS c #33000000ff00",
"aT c #33000000cc00",
"aU c #330000009900",
"aV c #330000006600",
"aW c #330000003300",
"aX c #330000000000",
"aY c #0000ff00ff00",
"aZ c #0000ff00cc00",
"a0 c #0000ff009900",
"a1 c #0000ff006600",
"a2 c #0000ff003300",
"a3 c #0000ff000000",
"a4 c #0000cc00ff00",
"a5 c #0000cc00cc00",
"a6 c #0000cc009900",
"a7 c #0000cc006600",
"a8 c #0000cc003300",
"a9 c #0000cc000000",
"b. c #00009900ff00",
"b# c #00009900cc00",
"ba c #000099009900",
"bb c #000099006600",
"bc c #000099003300",
"bd c #000099000000",
"be c #00006600ff00",
"bf c #00006600cc00",
"bg c #000066009900",
"bh c #000066006600",
"bi c #000066003300",
"bj c #000066000000",
"bk c #00003300ff00",
"bl c #00003300cc00",
"bm c #000033009900",
"bn c #000033006600",
"bo c #000033003300",
"bp c #000033000000",
"bq c #00000000ff00",
"br c #00000000cc00",
"bs c #000000009900",
"bt c #000000006600",
"bu c #000000003300",
"bv c #000000000000",
"bw c #2b002b002b00",
"bx c #170017001700",
"by c #100010001000",
"bz c #0a000a000a00",
"bA c #090009000900",
"bB c #070007000700",
"bC c none",
"bD c #000000000000",
"bE c #000000000000",
"bF c #000000000000",
"bG c #000000000000",
"bH c #000000000000",
"bI c #000000000000",
"bJ c #000000000000",
"bK c #000000000000",
"bL c #000000000000",
"bM c #000000000000",
"bN c #000000000000",
"bO c #000000000000",
"bP c #000000000000",
"bQ c #000000000000",
"bR c #000000000000",
"bS c #000000000000",
"bT c #000000000000",
"bU c #000000000000",
"bV c #000000000000",
"bW c #000000000000",
"bX c #000000000000",
"bY c #000000000000",
"bZ c #000000000000",
"b0 c #000000000000",
"b1 c #000000000000",
"b2 c #000000000000",
"b3 c #000000000000",
"b4 c #000000000000",
"b5 c #000000000000",
"b6 c #000000000000",
"b7 c #000000000000",
"b8 c #000000000000",
"b9 c #000000000000",
/* pixels */
"bCbCbCbCbCbCbCbCbCbCbCbCbCbCbCbC",
"bCbCbCbCbCbCbCbCbCbCbCbCbCbCbCbC",
"bCbC..bvbv..bvbvbv..bvbv..bCbCbC",
"bCbCbv....bv......bv....bvbv..bC",
"bCbCbv..................bv..bvbC",
"bCbC..bv....................bvbC",
"bC..bvbv....................bvbC",
"bCbv........................bvbC",
"bCbv......................bvbzbC",
"bCbxbv....................bvbCbC",
"bCbCbAbv................bvbzbCbC",
"bCbCbC..bv..............bvbCbCbC",
"bCbCbCbCbv..............bvbCbCbC",
"bCbCbCbCaQbybvbvbvbvbvbBbwbCbCbC",
"bCbCbCbCbCbCbCbCbCbCbCbCbCbCbCbC",
"bCbCbCbCbCbCbCbCbCbCbCbCbCbCbCbC"
};
