/* XPM */
static char * hand_tool_xpm[] = {
"17 15 14 1",
" 	c None",
".	c #DDDDDD",
"+	c #424242",
"@	c #5E5E5E",
"#	c #FFFBFB",
"$	c #CCCCCC",
"%	c #040404",
"&	c #737373",
"*	c #9C9C9C",
"=	c #1C1C1C",
"-	c #0D0D0D",
";	c #555555",
">	c #333333",
",	c #8C8C8C",
"        .+@      ",
"      +@#$%#+&   ",
"    &#$%#$%#$+   ",
"    %#$%#$%#$%#* ",
"    %#$%#$%#$%#@ ",
"    %#$%#$%#$%#+ ",
"    %#$%#$%#$%#= ",
"    %#$%#####%#- ",
" **;%###..#..##% ",
" ##*%#.#######.% ",
" ;##*#########$> ",
" ;*###########*> ",
"  =*#########.+* ",
"   %*########,>  ",
"    >;######.%   "};
