/* XPM */
static char * kilit_pic_xpm[] = {
"16 18 21 1",
" 	c None",
".	c #999999",
"+	c #666666",
"@	c #EAEB9C",
"#	c #FFFFFF",
"$	c #FFFFCC",
"%	c #FFFF99",
"&	c #CCFFFF",
"*	c #CCCC99",
"=	c #000000",
"-	c #787878",
";	c #E8E8E8",
">	c #999933",
",	c #FFAE3A",
"'	c #A8AF9C",
")	c #428BCE",
"!	c #306697",
"~	c #244D72",
"{	c #FFFFC8",
"]	c #FFFE9A",
"^	c #CCCCFF",
"                ",
"                ",
"     .+++++     ",
"    .@#$%&*.    ",
"    +#.===&+-   ",
"    +#=---&=-   ",
"    +#=-;.&=-   ",
"    +#=-;.&=-   ",
"   ++>+===>==   ",
"   +########=-  ",
"   +,@')!!~)=-  ",
"   +#{]]]^^&=-  ",
"   +,@')!!~)=-  ",
"   +#$%%%^^&=-  ",
"   +=========-  ",
"    ----------  ",
"                ",
"                "};
