/* XPM */
static char * lasso_tool_xpm[] = {
"29 23 6 1",
" 	c None",
".	c #999999",
"+	c #636363",
"@	c #333333",
"#	c #000000",
"$	c #D4D0C8",
"                             ",
"                             ",
"          ..+@@####@+.       ",
"         +@@+.......+@@      ",
"       .@+.           +@     ",
"      .@+              @.    ",
"      @+               @.    ",
"     +@                @.    ",
"     @+               #+     ",
"     @.             +#+      ",
"     @            +#+.       ",
"     +####.   ..+#+.         ",
"     ##@+$+##@@++.           ",
"     #$$@$#+++..             ",
"     #+$#+@                  ",
"     .####.                  ",
"        #.                   ",
"        #.                   ",
"       #+.                   ",
"      @+.                    ",
"      ..                     ",
"                             ",
"                             "};
