/* XPM */
static char * layer_folder_xpm[] = {
"16 14 20 1",
" 	c None",
".	c #646431",
"+	c #787878",
"@	c #F6EBC0",
"#	c #F7EECB",
"$	c #8C7F4A",
"%	c #99894C",
"&	c #000000",
"*	c #B2B27F",
"=	c #FFFFFF",
"-	c #8686FF",
";	c #F8F0CE",
">	c #999999",
",	c #F4E6B1",
"'	c #F2E1A3",
")	c #EFDC94",
"!	c #EDD885",
"~	c #A3A370",
"{	c #EBD377",
"]	c #ECD47A",
"    ....+       ",
"   .@###.+      ",
"  .$$$$$%.....& ",
"  *@==========& ",
"  -&;#########&>",
"  -&*@@@@@@@@@&>",
"-----&,,,,,,,,&>",
"&&-&&&*'''''''&>",
"  -&***)))))))&>",
"  &&*!!!!!!!!!&>",
"  *~*{{{]]]]]]&>",
"  &&&&&&&&&&&&&>",
"   >>>>>>>>>>>>>",
"                "};
