/* XPM */
static char * layer_pic_xpm[] = {
"16 16 54 1",
" 	c None",
".	c #646431",
"+	c #FFFFFF",
"@	c #FDFDFA",
"#	c #FBFBF3",
"$	c #F9F9EE",
"%	c #F7F6E5",
"&	c #F4F5E0",
"*	c #F3F3DB",
"=	c #F1F1D6",
"-	c #000000",
";	c #787878",
">	c #FEFEFC",
",	c #FCFCF6",
"'	c #FAFAEE",
")	c #F8F8E9",
"!	c #F6F6E5",
"~	c #EFF0D1",
"{	c #FAFBF3",
"]	c #F8F7EA",
"^	c #F2F1D6",
"/	c #F0F0D1",
"(	c #EEEECC",
"_	c #FCFCF7",
":	c #FBFAF2",
"<	c #F5F4E0",
"[	c #CCCC99",
"}	c #FAFBF2",
"|	c #F8F8EA",
"1	c #F5F5E0",
"2	c #999966",
"3	c #B5B482",
"4	c #CBCB98",
"5	c #F6F7E5",
"6	c #666633",
"7	c #FAF9E0",
"8	c #3C3E40",
"9	c #F7F8E9",
"0	c #F6F6E4",
"a	c #333300",
"b	c #DFDEC0",
"c	c #737271",
"d	c #A7A49C",
"e	c #E3E0C4",
"f	c #4F5454",
"g	c #F1F2D6",
"h	c #F0EFD1",
"i	c #F6F6D8",
"j	c #CFCF9F",
"k	c #EEEECD",
"l	c #9F9F6B",
"m	c #080910",
"n	c #040405",
"o	c #4F4F4F",
"                ",
" .............  ",
" .++@@#$$%&*=-; ",
" .>>,,')!!*=~-; ",
" .@@{{]]&*^/(-; ",
" ._::]]<*==([-; ",
" .}}|%1222234-; ",
" .$$5<*6+++728; ",
" .900**a++b[-cd ",
" .%<*==a+e[-f;  ",
" .1*ghhaij-f;   ",
" .*==k[2lmf;    ",
" .----nmo;;     ",
"  ;;;;;;;d      ",
"                ",
"                "};
