/* XPM */
static char * main_doc_ico_xpm[] = {
"32 32 9 1",
" 	c None",
".	c #000000",
"+	c #FFFFFF",
"@	c #C0C0C0",
"#	c #808080",
"$	c #800000",
"%	c #FF0000",
"&	c #008080",
"*	c #000080",
"    ..................          ",
"    .+++++++++++++++.@.         ",
"    .+++++++++++++++.@@.        ",
"    .+++++++++++++++.+@@.       ",
"    .+++++++++++++++.++@@.      ",
"    .+++++++++++++++.+++@@.     ",
"    .+++++++++++++++.++++@@.    ",
"    .+++++++++++++++........#   ",
"    .++++++++++++++++######.#   ",
"    .+++++++++++++++++++++#.#   ",
"    .+++++++@#$$$$#@++++++#.#   ",
"    .+++++@#$$%%%%$$#@++++#.#   ",
"    .++++@#$%%%%%%%%$#@+++#.#   ",
"    .++++#$%%%%%%..&%$#+++#.#   ",
"    .+++@$%%%%%%.*&&%%$@++#.#   ",
"    .+++#$%%%%%$*&$%%%%#++#.#   ",
"    .+++$%%%%%%.&*%%%%%$++#.#   ",
"    .+++$%%%%%%.**.%%%%$++#.#   ",
"    .+++$%%%%%.****%%%%$++#.#   ",
"    .+++$%%%%%.*.%%%%%%$++#.#   ",
"    .+++#%%%%.**%%%%%%%#++#.#   ",
"    .+++#$%$.**.%%%%%%$#++#.#   ",
"    .+++@#$$**$%%%%%%$#@++#.#   ",
"    .++++@#$%%%%%%%%$#@+++#.#   ",
"    .+++++@#$%%%%%%$#@++++#.#   ",
"    .++++++@##$$$$##@+++++#.#   ",
"    .+++++++@@@@@@@@++++++#.#   ",
"    .+++++++++++++++++++++#.#   ",
"    .+#####################.#   ",
"    ........................#   ",
"     ########################   ",
"                                "};
