/* XPM */
static char * main_ico1_xpm[] = {
"48 48 528 2",
"  	c None",
". 	c #4E1617",
"+ 	c #4F1617",
"@ 	c #501617",
"# 	c #541618",
"$ 	c #531618",
"% 	c #501618",
"& 	c #4D1517",
"* 	c #441314",
"= 	c #000000",
"- 	c #4D1516",
"; 	c #521618",
"> 	c #571819",
", 	c #5B191A",
"' 	c #611B1C",
") 	c #651C1D",
"! 	c #681D1E",
"~ 	c #6C1E1F",
"{ 	c #6B1E1F",
"] 	c #661C1D",
"^ 	c #641B1D",
"/ 	c #601A1C",
"( 	c #5A191A",
"_ 	c #481415",
": 	c #4F1618",
"< 	c #541719",
"[ 	c #5C191B",
"} 	c #641C1D",
"| 	c #752022",
"1 	c #7B2122",
"2 	c #832121",
"3 	c #892121",
"4 	c #8A2020",
"5 	c #901E1D",
"6 	c #921E1C",
"7 	c #8E1F1E",
"8 	c #872121",
"9 	c #812122",
"0 	c #792122",
"a 	c #732021",
"b 	c #6A1D1E",
"c 	c #621B1C",
"d 	c #4A1416",
"e 	c #5E1A1B",
"f 	c #671C1E",
"g 	c #7F2122",
"h 	c #8B201F",
"i 	c #971C1A",
"j 	c #9E1A16",
"k 	c #A51812",
"l 	c #AF150D",
"m 	c #B2140C",
"n 	c #AD150E",
"o 	c #A41813",
"p 	c #9C1B17",
"q 	c #941D1B",
"r 	c #7C2122",
"s 	c #701F20",
"t 	c #59181A",
"u 	c #411113",
"v 	c #511718",
"w 	c #671C1D",
"x 	c #852121",
"y 	c #A01A15",
"z 	c #BD1106",
"A 	c #C60F02",
"B 	c #CA0F00",
"C 	c #CB0F00",
"D 	c #CD1000",
"E 	c #CD1100",
"F 	c #CC1000",
"G 	c #C90F01",
"H 	c #C41003",
"I 	c #B81208",
"J 	c #AB160F",
"K 	c #9B1B18",
"L 	c #8C201F",
"M 	c #7F2123",
"N 	c #6F1F20",
"O 	c #4E1516",
"P 	c #250A0B",
"Q 	c #4A1516",
"R 	c #531718",
"S 	c #6D1E1F",
"T 	c #7D2223",
"U 	c #A21914",
"V 	c #B61309",
"W 	c #C70F01",
"X 	c #CE1100",
"Y 	c #D01200",
"Z 	c #D11300",
"` 	c #D31400",
" .	c #D41500",
"..	c #D21400",
"+.	c #CF1200",
"@.	c #C21003",
"#.	c #B0140C",
"$.	c #7A2122",
"%.	c #581819",
"&.	c #1D0808",
"*.	c #4C1516",
"=.	c #561819",
"-.	c #631B1D",
";.	c #742021",
">.	c #842223",
",.	c #9B1B17",
"'.	c #B4130B",
").	c #D51600",
"!.	c #D71700",
"~.	c #D91800",
"{.	c #DA1900",
"].	c #DB1A00",
"^.	c #DC1A00",
"/.	c #DC1B00",
"(.	c #DB1900",
"_.	c #D81800",
":.	c #D61700",
"<.	c #D21300",
"[.	c #CF1100",
"}.	c #822122",
"|.	c #6E1E20",
"1.	c #5D191A",
"2.	c #330E0F",
"3.	c #C01005",
"4.	c #D91900",
"5.	c #DE1C00",
"6.	c #E01D00",
"7.	c #E11D00",
"8.	c #E31E00",
"9.	c #E21E00",
"0.	c #DD1B00",
"a.	c #CA220A",
"b.	c #9B2A1E",
"c.	c #842F29",
"d.	c #832E29",
"e.	c #9A2A1F",
"f.	c #B71209",
"g.	c #862121",
"h.	c #711F21",
"i.	c #5F1A1B",
"j.	c #260A0B",
"k.	c #551719",
"l.	c #AA1710",
"m.	c #D61600",
"n.	c #E61F00",
"o.	c #E82100",
"p.	c #EA2200",
"q.	c #EB2300",
"r.	c #E92200",
"s.	c #A12E1E",
"t.	c #4B3A42",
"u.	c #213C51",
"v.	c #213F56",
"w.	c #21425A",
"x.	c #214761",
"y.	c #C3200F",
"z.	c #BE1105",
"A.	c #180607",
"B.	c #722021",
"C.	c #8D1F1E",
"D.	c #C80E01",
"E.	c #D81700",
"F.	c #E41E00",
"G.	c #EB2200",
"H.	c #ED2400",
"I.	c #EF2600",
"J.	c #F12700",
"K.	c #F22800",
"L.	c #F32800",
"M.	c #F22700",
"N.	c #DA2B0A",
"O.	c #57383D",
"P.	c #21455F",
"Q.	c #22506E",
"R.	c #225575",
"S.	c #9A332C",
"T.	c #C11004",
"U.	c #521617",
"V.	c #511617",
"W.	c #A71711",
"X.	c #D31500",
"Y.	c #DE1B00",
"Z.	c #E72000",
"`.	c #EE2500",
" +	c #F42900",
".+	c #F62A00",
"++	c #F82B00",
"@+	c #F92C00",
"#+	c #FA2D00",
"$+	c #FA2C00",
"%+	c #C53114",
"&+	c #2F3B4C",
"*+	c #225271",
"=+	c #853B3B",
"-+	c #BE1005",
";+	c #842122",
">+	c #3E1112",
",+	c #802122",
"'+	c #C40F02",
")+	c #F52900",
"!+	c #F82C00",
"~+	c #FB2D00",
"{+	c #FD2F00",
"]+	c #FE3000",
"^+	c #FF3000",
"/+	c #D5320F",
"(+	c #224963",
"_+	c #714549",
":+	c #C80D00",
"<+	c #991C19",
"[+	c #7C2123",
"}+	c #130506",
"|+	c #531719",
"1+	c #631B1C",
"2+	c #772122",
"3+	c #BC1106",
"4+	c #EF2500",
"5+	c #F72B00",
"6+	c #FE2F00",
"7+	c #E3320A",
"8+	c #224C68",
"9+	c #594C58",
"0+	c #C90E00",
"a+	c #C70D01",
"b+	c #8F1F1E",
"c+	c #481414",
"d+	c #892021",
"e+	c #59393D",
"f+	c #30536E",
"g+	c #724549",
"h+	c #C02916",
"i+	c #C10F03",
"j+	c #A31913",
"k+	c #832122",
"l+	c #130505",
"m+	c #7D2122",
"n+	c #C30F03",
"o+	c #F42800",
"p+	c #BA3419",
"q+	c #225373",
"r+	c #7E4242",
"s+	c #D62107",
"t+	c #B5130A",
"u+	c #421213",
"v+	c #DF1C00",
"w+	c #E51F00",
"x+	c #EC2300",
"y+	c #3D3B47",
"z+	c #224D6A",
"A+	c #9F362C",
"B+	c #CC0F00",
"C+	c #511618",
"D+	c #5F1A1C",
"E+	c #762022",
"F+	c #F02600",
"G+	c #FC2E00",
"H+	c #AC351E",
"I+	c #215474",
"J+	c #1B4E6F",
"K+	c #9F3529",
"L+	c #6F1E20",
"M+	c #260B0B",
"N+	c #822021",
"O+	c #A61812",
"P+	c #D01300",
"Q+	c #E62000",
"R+	c #224F6C",
"S+	c #1D5071",
"T+	c #14486A",
"U+	c #5A3E47",
"V+	c #E52000",
"W+	c #E21D00",
"X+	c #DA1800",
"Y+	c #411213",
"Z+	c #571719",
"`+	c #E92100",
" @	c #F72A00",
".@	c #194D6E",
"+@	c #124667",
"@@	c #0E4264",
"#@	c #D2290D",
"$@	c #551819",
"%@	c #5A181A",
"&@	c #D51500",
"*@	c #82372E",
"=@	c #224A65",
"-@	c #1F5373",
";@	c #164A6B",
">@	c #104466",
",@	c #0C4163",
"'@	c #273C54",
")@	c #04385B",
"!@	c #032F4E",
"~@	c #022A45",
"{@	c #022945",
"]@	c #AD160E",
"^@	c #882121",
"/@	c #BF1005",
"(@	c #1D4E6E",
"_@	c #134768",
":@	c #0A3F61",
"<@	c #063B5E",
"[@	c #04395C",
"}@	c #022A46",
"|@	c #B4130A",
"1@	c #611A1C",
"2@	c #792123",
"3@	c #C20F03",
"4@	c #F52A00",
"5@	c #153952",
"6@	c #083D60",
"7@	c #053A5D",
"8@	c #04375A",
"9@	c #043659",
"0@	c #043557",
"a@	c #033456",
"b@	c #033254",
"c@	c #033153",
"d@	c #721F21",
"e@	c #7D2021",
"f@	c #743833",
"g@	c #0C2B40",
"h@	c #093755",
"i@	c #043558",
"j@	c #033355",
"k@	c #033052",
"l@	c #032F51",
"m@	c #E72100",
"n@	c #BB1107",
"o@	c #EF2F03",
"p@	c #08273C",
"q@	c #012238",
"r@	c #033051",
"s@	c #032E4F",
"t@	c #032E4E",
"u@	c #8F2917",
"v@	c #002035",
"w@	c #022C46",
"x@	c #032D4D",
"y@	c #032C4C",
"z@	c #20222E",
"A@	c #043556",
"B@	c #7F2E29",
"C@	c #ED2500",
"D@	c #E41F00",
"E@	c #5D1A1B",
"F@	c #C01004",
"G@	c #E82200",
"H@	c #982514",
"I@	c #01263E",
"J@	c #233249",
"K@	c #F62B00",
"L@	c #911E1D",
"M@	c #591819",
"N@	c #951D1A",
"O@	c #03304F",
"P@	c #E01C00",
"Q@	c #551718",
"R@	c #892517",
"S@	c #01253E",
"T@	c #043456",
"U@	c #D62A0A",
"V@	c #C60E01",
"W@	c #691D1E",
"X@	c #C4260A",
"Y@	c #02304F",
"Z@	c #5F2D31",
"`@	c #EC2400",
" #	c #7B2123",
".#	c #240A0A",
"+#	c #601A1B",
"@#	c #A22311",
"##	c #102132",
"$#	c #022A47",
"%#	c #D2270A",
"&#	c #6D1E20",
"*#	c #541718",
"=#	c #C41C07",
"-#	c #A02111",
";#	c #3D2228",
">#	c #022944",
",#	c #7C2B26",
"'#	c #CA0E00",
")#	c #A91710",
"!#	c #491415",
"~#	c #340E0F",
"{#	c #661D1E",
"]#	c #73201B",
"^#	c #002137",
"/#	c #01233A",
"(#	c #02243D",
"_#	c #021E34",
":#	c #011626",
"<#	c #010F1A",
"[#	c #010910",
"}#	c #000509",
"|#	c #030203",
"1#	c #0B0200",
"2#	c #140300",
"3#	c #2D0600",
"4#	c #550B00",
"5#	c #831100",
"6#	c #AA1600",
"7#	c #C41900",
"8#	c #D41A00",
"9#	c #0D0404",
"0#	c #561818",
"a#	c #931D1B",
"b#	c #032E4D",
"c#	c #011727",
"d#	c #000407",
"e#	c #010000",
"f#	c #050100",
"g#	c #080100",
"h#	c #140200",
"i#	c #2E0500",
"j#	c #5D0900",
"k#	c #920E00",
"l#	c #BC1100",
"m#	c #300D0E",
"n#	c #671D1E",
"o#	c #72201B",
"p#	c #02192B",
"q#	c #020000",
"r#	c #200300",
"s#	c #720900",
"t#	c #B80E00",
"u#	c #772021",
"v#	c #531717",
"w#	c #721F1B",
"x#	c #00060B",
"y#	c #270300",
"z#	c #8C0A00",
"A#	c #431313",
"B#	c #5C191A",
"C#	c #A41B0D",
"D#	c #000203",
"E#	c #6C0700",
"F#	c #C50E02",
"G#	c #621B1D",
"H#	c #250A0A",
"I#	c #BE1907",
"J#	c #402428",
"K#	c #662527",
"L#	c #1D090A",
"M#	c #6D0800",
"N#	c #701F21",
"O#	c #3C1011",
"P#	c #812123",
"Q#	c #9D1A16",
"R#	c #BF1105",
"S#	c #890900",
"T#	c #140100",
"U#	c #030000",
"V#	c #280400",
"W#	c #900C00",
"X#	c #792022",
"Y#	c #220A0A",
"Z#	c #380F10",
"`#	c #9A1B18",
" $	c #BE1407",
".$	c #961000",
"+$	c #3B0600",
"@$	c #120100",
"#$	c #0C0100",
"$$	c #100100",
"%$	c #1E0200",
"&$	c #310400",
"*$	c #490600",
"=$	c #560700",
"-$	c #3C0500",
";$	c #190200",
">$	c #090100",
",$	c #050000",
"'$	c #210400",
")$	c #760C00",
"!$	c #B31003",
"~$	c #AC160F",
"{$	c #2B0C0C",
"]$	c #B4170C",
"^$	c #D61801",
"/$	c #EA2300",
"($	c #D81C00",
"_$	c #C81B00",
":$	c #B21A00",
"<$	c #821400",
"[$	c #580E00",
"}$	c #410A00",
"|$	c #420900",
"1$	c #610C00",
"2$	c #951101",
"3$	c #AA1206",
"4$	c #6D1D1F",
"5$	c #230A0A",
"6$	c #1B0708",
"7$	c #58191A",
"8$	c #C61907",
"9$	c #E11E01",
"0$	c #F32900",
"a$	c #CA1805",
"b$	c #AE160E",
"c$	c #601B1B",
"d$	c #401212",
"e$	c #6B1D1F",
"f$	c #901F1D",
"g$	c #A11915",
"h$	c #C21A09",
"i$	c #DC1F03",
"j$	c #F12800",
"k$	c #C71907",
"l$	c #AF170E",
"m$	c #731F21",
"n$	c #360F0F",
"o$	c #A91912",
"p$	c #C21C0B",
"q$	c #D22007",
"r$	c #E12403",
"s$	c #EC2802",
"t$	c #EC2902",
"u$	c #D62005",
"v$	c #C51B09",
"w$	c #B0170E",
"x$	c #0E0404",
"y$	c #3F1112",
"z$	c #320E0E",
"A$	c #4E1517",
"B$	c #651B1D",
"C$	c #4F1517",
"                                  . + @ # $ $ $ $ $ % & * = =                                   ",
"                            - ; > , ' ) ! ~ ~ ~ ~ { ] ^ / ( ; _ = =                             ",
"                        : < [ } { | 1 2 3 4 5 6 7 3 8 9 0 a b c > d = =                         ",
"                    . < e f a g h i j k l m m m m m n o p q 8 r s ) t u = =                     ",
"                  v ( w a x 6 y l z A B C D D E D F C G H I J K L M N c O P = =                 ",
"              Q R / S T 7 U V W F X Y Z `  . . . . ...Z +.D C @.#.p h $.! %.&.= =               ",
"            *.=.-.;.>.,.'.W D Y ..).!.~.{.].^./.^.(.{._.:. .<.[.C @.J q }.|.1.2.= =             ",
"          Q =.} a 4 o 3.C +.` !.4.^.5.6.7.8.8.8.8.9.7.6.0.0.a.b.c.d.e.f.p g.h.i.j.= =           ",
"        Q k.} a 7 l.A E Z m.{.0.6.8.n.o.p.p.q.q.q.p.r.p.s.t.u.u.v.w.x.y.z.o 8 h.( A.= =         ",
"        R c B.C.n D.X ` E.^.6.F.o.G.H.I.J.K.L.L.L.M.N.O.u.u.P.Q.R.R.R.S.D T.o 8 s U.= =         ",
"      V.e N 8 W.W [.X.~.Y.9.Z.q.`.M. +.+++@+#+#+$+%+&+u.w.*+R.R.R.R.R.=++.C -+y ;+{ >+= =       ",
"    Q t { ,+U '+X X.~.Y.8.o.H.J.)+!+~+{+]+^+^+^+/+u.u.(+R.R.R.R.R.R.R._+:+:+:+f.<+[+' }+= =     ",
"    |+1+2+q 3+D ` ~.Y.8.r.4+L.5+~+6+^+^+^+^+^+7+&+u.8+R.R.R.R.R.R.R.R.9+0+:+:+a+l b+a c+= =     ",
"  Q [ s d+n C Z !.0.8.r.4+ +!+{+^+^+^+^+^+^+^+e+u.P.R.R.R.R.R.R.f+g+=+h+C :+:+:+i+j+k+) l+= =   ",
"  $ ^ m+,.n+X ).].7.o.`.o+@+6+^+^+^+^+^+^+^+p+u.v.q+R.R.R.R.R.r+s+ .<.+.D B :+:+:+t+6 ;.u+= =   ",
"  t S 4 l C .._.v+w+x+K.++6+^+^+^+^+^+^+^+^+y+u.z+R.R.R.R.R.A+0.E.m.` Z X B+0+:+:+i+j+}.' = =   ",
"C+D+E+<+3.X ).^.9.p.F+.+G+^+^+^+^+^+^+^+^+H+u.w.R.R.R.I+J+K+v+0.(.E.m.` Y D B :+:+:+m 7 L+M+= = ",
"# ) N+O+G P+E.5.Q+H.L.#+^+^+^+^+^+^+^+^+^+e+u.R+R.R.S+T+U+V+W+v+^.X+!. .<.X B+0+:+:+z <+2+Y+= = ",
"Z+{ h l C ` {.7.`+F+ @{+^+^+^+^+^+^+^+^+7+u.v.R.I+.@+@@@#@Q+8.7.Y.^._.m.` Y D B :+:+'+o 9 $@= = ",
"%@a 6 I B+&@^.8.q.M.@+^+^+^+^+^+^+^+^+^+*@u.=@-@;@>@,@'@)@)@!@~@{@8.X+!. .Z X C :+:+:+]@^@D+= = ",
"e E+K /@0+m.0.w+H. +~+^+^+^+^+^+^+^+^+^+&+u.(@_@@@:@<@[@)@!@}@~@{@Q+(.E.&@<.X B+0+:+:+|@7 S = = ",
"1@2@j 3@:++.v+Z.`.4@G+^+^+^+^+^+^+^+^+p+u.5@>@,@6@7@)@8@9@0@a@b@c@Q+^.E.).<.+.B+0+:+:+V 6 d@= = ",
"c e@o '+:+:+E.Z.4+.+{+^+^+^+^+^+^+^+^+f@g@h@:@<@[@)@9@i@a@j@b@k@l@m@^.~.m.` +.F 0+:+:+n@6 ;.= = ",
"c e@o '+:+:+B Y.I..+6+^+^+^+^+^+^+^+o@p@q@6@7@)@8@9@0@a@b@c@r@s@t@m@^.~.m.` +.D 0+:+:+/@6 ;.= = ",
"c e@o '+:+:+B D Y. +6+^+^+^+^+^+^+^+u@v@w@[@)@9@i@a@j@b@k@l@s@x@y@m@^.~.m.` +.D 0+:+:+-+6 ;.= = ",
"c $.U '+:+:+B D P+m.V+L.{+^+^+6+@+5+z@v@A@8@9@0@a@B@K.F+C@p.m@D@7.m@^._.m...+.F 0+:+:+f.6 d@= = ",
"E@2@K F@:+:+0+D Y ` m.~.^.v+9.w+G@H@v@I@9@i@a@j@J@K@K.F+C@p.m@D@7.Y.(.E.).<.+.B+0+:+:+V L@] = = ",
"M@;.N@z :+:+0+F +.<.).E.^.Y.7.D@p.z@v@O@0@a@b@c@B@M.F+`.q.G@Q+8.P@0.{.!. .Z X C :+:+:+l 3 %@= = ",
"Q@|.b+|@:+:+:+C X <. .!.{.0.P@9.R@v@S@T@j@b@k@l@U@I.C@q.r.m@D@W+v+^.~.m.` P+D B :+:+V@W.;+u+= = ",
"u W@x l.a+:+:+B D P+` m.~.^.Y.X@v@v@Y@b@c@k@s@Z@`@`@q.r.m@w+9.P@0.(.E.&@<.+.D 0+:+:+i+j  #.#= = ",
"= +#r y i+:+:+0+B++.<. .!.^.@###v@$#b@k@l@s@x@%#p.r.o.Q+w+9.7.Y.^.~.m.` Z X C :+:+:+I L@&#= = = ",
"= *#h.5 V :+:+:+C D ~.=#-#;#v@v@>#c@k@s@t@y@,#m@Q+Q+w+8.9.P@Y.^.~.!. .<.+.D '#:+:+V@)#g.!#= = = ",
"  ~#{#2 o '+:+:+0+B+]#v@v@^#/#(#_#:#<#[#}#|#1#2#3#4#5#6#7#8#^.X+!.&@` Y D C :+:+:+3+<+$.9#= =   ",
"  = 0#;.a#V :+:+:+B ]#v@a@b#c#d#= = = = = = = = = = e#e#f#g#h#i#j#k#l#X B+0+:+:+V@J 4 k.= = =   ",
"  = m#n#9 j+i+:+:+:+o#v@b@p#= = = = = = = = = = = = = = = = = = q#r#s#t#'#:+:+:+I i u#9#= = =   ",
"    = v#d@7 ]@a+:+:+w#v@k@x#= = = = = = = = = = = = = = = = = = = = y#z#:+:+:+i+j+;+A#= = =     ",
"    = = B#$.N@z :+:+C#v@x@D#= = = = = = = = = = = = = = = = = = = = g#E#:+:+F#J h G#= = = =     ",
"      = H#-.g ,.-+0+I#J#K#L#= = = = = = = = = = = = = = = = = = = = g#M#0+F#l 6 N#9#= = =       ",
"        = O#W@P#Q#R#[.Z [.S#T#U#= = = = = = = = = = = = = = = = = = V#W#A l 6 X#Y#= = =         ",
"        = = Z#b P#`# $&@{.0..$+$@$#$$$%$&$*$=$-$;$>$,$e#= = = = U#'$)$!$~$6 X#Y#= = = =         ",
"          = = {$} g a#]$^$v+D@/$I.`@/$D@7.!.E.E.E.($_$:$<$[$}$|$1$2$3$o L 4$5$= = = =           ",
"            = = 6$7$0 h y 8$9$r.`.L.@+{+^+^+^+^+^+^+6+@+0$`.p.9$a$b$`#;+c$9#= = = =             ",
"              = = = d$e$,+f$g$h$i$j$.+~+]+^+^+^+^+]+~+.+j$i$k$l$,.4 m$n$= = = = =               ",
"                = = = = @ |.g 7 `#o$p$q$r$s$t$t$s$r$u$v$w$U i 8 X#- x$= = = = =                 ",
"                    = = = = A#e 2+9 3 6 N@K p y K K a#b+8 m+1+y$= = = = = =                     ",
"                        = = = = = z$A$/ B$h.2@2@h.! ' C$m#x$= = = = = = =                       ",
"                            = = = = = = = = = = = = = = = = = = = =                             ",
"                                  = = = = = = = = = = = = = = =                                 "};
