/* XPM */
static char * motion_guide_xpm[] = {
"16 14 14 1",
" 	c None",
".	c #FF0000",
"+	c #8686FF",
"@	c #000000",
"#	c #0C6CA1",
"$	c #2545E4",
"%	c #FFFFFF",
"&	c #1F3AD0",
"*	c #1A2FBD",
"=	c #0A1287",
"-	c #5F7571",
";	c #75726D",
">	c #4C7774",
",	c #769693",
"                ",
"       ..       ",
"    .. .. ..    ",
"    ..    ..    ",
"                ",
"  +@        ..  ",
"  +@        ..  ",
"+++++@          ",
"@@+@@@     #$$# ",
"  +@       $%$& ",
"  @@       $$*=-",
"           #&=;>",
"             ->,",
"                "};
