/* XPM */
static char * new_layer_on_timeline_xpm[] = {
"16 14 38 1",
" 	c None",
".	c #646431",
"+	c #FFFFFF",
"@	c #FCFCF9",
"#	c #F9F9F3",
"$	c #F6F7F0",
"%	c #F3F3EA",
"&	c #000000",
"*	c #F3F3C0",
"=	c #FDFDFB",
"-	c #FBFAF7",
";	c #F7F7F1",
">	c #F5F5ED",
",	c #F1F2E7",
"'	c #EFEFE4",
")	c #8686FF",
"!	c #F9F8F4",
"~	c #F1F1E8",
"{	c #ECECDE",
"]	c #B2B27F",
"^	c #FAFAF6",
"/	c #F7F7F0",
"(	c #CCCC99",
"_	c #999966",
":	c #9E9E6B",
"<	c #374446",
"[	c #F2F1E7",
"}	c #333300",
"|	c #FFFFCC",
"1	c #787878",
"2	c #4F4F4F",
"3	c #F0F0E5",
"4	c #EDEEE1",
"5	c #A3A370",
"6	c #EEEEE1",
"7	c #080910",
"8	c #040405",
"9	c #3F3F3F",
"                ",
"  ............. ",
"  .++++@@#$$%%& ",
"  *+==--;>>,''& ",
"  )&==!!>>~''{& ",
"  )&]^///%%''(& ",
")))))&>>>___:]< ",
"&&)&&&][[}|((&1 ",
"  )&]]]''}((&2  ",
"  &&]%344.(&2   ",
"  ]5]~6(:.72    ",
"  .&&&&8921     ",
"                ",
"                "};
