/* XPM */
static char * outline_pic_xpm[] = {
"16 18 2 1",
" 	c None",
".	c #000000",
"                ",
"                ",
"                ",
"  ............  ",
"  ............  ",
"  ..        ..  ",
"  ..        ..  ",
"  ..        ..  ",
"  ..        ..  ",
"  ..        ..  ",
"  ..        ..  ",
"  ..        ..  ",
"  ..        ..  ",
"  ............  ",
"  ............  ",
"                ",
"                ",
"                "};
