/* XPM */
static char *paint_bucket[]={
"32 32 3 1",
". c None",
"a c #000000",
"# c #ffffff",
"........#aa.#...................",
".......#a##a#...................",
"......#aaaaa#...................",
"...###a#a##a#...................",
"..#aaa##a###a#..................",
".#aaa###a####a#.................",
"#aaa###a#a####a#................",
"#aaa####a######a#...............",
"#aaaa###########a#..............",
"#aaa#a##########a#..............",
"#aaa##a########a#...............",
"#aaa#.#a######a#................",
"#aaa#..#a####a#.................",
"##aa#...#a##a#..................",
"..#a#....#aa#...................",
"...##.....##....................",
"................................",
"................................",
"................................",
"................................",
"................................",
"................................",
"................................",
"................................",
"................................",
"................................",
"................................",
"................................",
"................................",
"................................",
"................................",
"................................"};
