/* XPM */
static char * paint_bucket_tool_xpm[] = {
"32 32 9 1",
" 	c None",
".	c #FFFFFF",
"+	c #212121",
"@	c #000000",
"#	c #D4D0C8",
"$	c #666666",
"%	c #999999",
"&	c #BBBBBB",
"*	c #565656",
"                                ",
"                                ",
"                                ",
"                                ",
"                                ",
"                                ",
"                                ",
"                                ",
"                                ",
"                                ",
"                                ",
"                                ",
"                     .          ",
"                  ...+...       ",
"                  .@###$.       ",
"                  .@$##+.       ",
"              .....@$@#+.       ",
"             ..$$@.@#$@+.       ",
"             .$$@..@.#$@.       ",
"             .$@%%$@$.#$@.      ",
"            ..@$#$.&*..#$@.     ",
"            .$@@+.%@$#..#$@.    ",
"            .$@@.+.$%##..#@.    ",
"            .$@$..+.$%##%@.     ",
"            .$@$...@.$%%@.      ",
"            .$@$.  .+.%@.       ",
"            ..+$.   .@@.        ",
"             ....    ..         ",
"                                ",
"                                ",
"                                ",
"                                "};
