/* XPM */
static char * pen_tool_xpm[] = {
"14 15 10 1",
" 	c None",
".	c #1C1C1C",
"+	c #040404",
"@	c #555555",
"#	c #000066",
"$	c #99CCFF",
"%	c #FFFBFB",
"&	c #CCCCFF",
"*	c #336699",
"=	c #9C9CCE",
"       .      ",
"       +      ",
"      @+@     ",
"      ++#     ",
"     +$+$#    ",
"     @%+&*    ",
"    .%%+$=.   ",
"    .%%+&=.   ",
"    @&$%$$@   ",
"     @&+=@    ",
"     .&+=.    ",
"    +++++++   ",
"     +++++    ",
"     +++++    ",
"     +++++    "};
