/* XPM */
static char * show_hide_all_layers_xpm[] = {
"15 14 257 2",
"  	c None",
". 	c #D4D0C8",
"+ 	c #EFBCCC",
"@ 	c #330033",
"# 	c #996699",
"$ 	c #330066",
"% 	c #330099",
"& 	c #0000FF",
"* 	c #000099",
"= 	c #333399",
"- 	c #6666FF",
"; 	c #6666CC",
"> 	c #333366",
", 	c #9999FF",
"' 	c #63639C",
") 	c #666699",
"! 	c #9999CC",
"~ 	c #9C9CCE",
"{ 	c #CCCCFF",
"] 	c #CECEFF",
"^ 	c #C7C7EB",
"/ 	c #EEEEFF",
"( 	c #0066CC",
"_ 	c #003366",
": 	c #99CCFF",
"< 	c #CCFFFF",
"[ 	c #5D7171",
"} 	c #151616",
"| 	c #1A1B1B",
"1 	c #006633",
"2 	c #009900",
"3 	c #339900",
"4 	c #66CC00",
"5 	c #008080",
"6 	c #CCFF99",
"7 	c #FFFF00",
"8 	c #999900",
"9 	c #666600",
"0 	c #CCCC33",
"a 	c #999933",
"b 	c #FFFD61",
"c 	c #FFFD63",
"d 	c #FFFE63",
"e 	c #FFFF65",
"f 	c #FFFF66",
"g 	c #CCCC66",
"h 	c #666633",
"i 	c #FFFF99",
"j 	c #999966",
"k 	c #FFFFB5",
"l 	c #CCCC99",
"m 	c #FFFFCC",
"n 	c #FFF959",
"o 	c #FFFA5B",
"p 	c #FFFA5D",
"q 	c #FFFB5D",
"r 	c #FFFB5F",
"s 	c #FFFC60",
"t 	c #FFF552",
"u 	c #FFF757",
"v 	c #FFF857",
"w 	c #FFF048",
"x 	c #FFF14A",
"y 	c #FFF24B",
"z 	c #FFF24D",
"A 	c #FFF34F",
"B 	c #FFF450",
"C 	c #FFF451",
"D 	c #FFEB3E",
"E 	c #FFEC40",
"F 	c #FFED41",
"G 	c #FFED43",
"H 	c #FFEF46",
"I 	c #FFEF48",
"J 	c #FFE531",
"K 	c #FFE532",
"L 	c #FFE735",
"M 	c #FFE93A",
"N 	c #FFDD21",
"O 	c #FFDD23",
"P 	c #FFDE23",
"Q 	c #FFDF26",
"R 	c #FFE027",
"S 	c #FFE12A",
"T 	c #FFE22B",
"U 	c #FFE12C",
"V 	c #FFE32E",
"W 	c #FFE32F",
"X 	c #FFD40F",
"Y 	c #FFD511",
"Z 	c #FFD513",
"` 	c #FFD614",
" .	c #FFD615",
"..	c #FFD716",
"+.	c #FFD919",
"@.	c #FFD91A",
"#.	c #FFD91B",
"$.	c #FFDA1C",
"%.	c #FFDB1E",
"&.	c #FFDC20",
"*.	c #FFCC00",
"=.	c #FFCC01",
"-.	c #FFCF05",
";.	c #FFCF06",
">.	c #FFD008",
",.	c #FFD20D",
"'.	c #FFD30E",
").	c #FFD30F",
"!.	c #CC9900",
"~.	c #FFCC33",
"{.	c #FFD249",
"].	c #CC9933",
"^.	c #FFCC66",
"/.	c #663300",
"(.	c #FF6633",
"_.	c #FF0000",
":.	c #FF3333",
"<.	c #663333",
"[.	c #996666",
"}.	c #CC9999",
"|.	c #FFCCCC",
"1.	c #FFCECE",
"2.	c #1B1A1A",
"3.	c #FFFBFB",
"4.	c #FFFFFF",
"5.	c #EEEEEE",
"6.	c #DEDEDE",
"7.	c #DDDDDD",
"8.	c #008080",
"9.	c #CCCCCC",
"0.	c #BFBFBF",
"a.	c #BDBDBD",
"b.	c #BBBBBB",
"c.	c #ADADAD",
"d.	c #AAAAAA",
"e.	c #9C9C9C",
"f.	c #999999",
"g.	c #8C8C8C",
"h.	c #888888",
"i.	c #7F7F7F",
"j.	c #777777",
"k.	c #737373",
"l.	c #666666",
"m.	c #646464",
"n.	c #636363",
"o.	c #5F5F5F",
"p.	c #555555",
"q.	c #525252",
"r.	c #444444",
"s.	c #424242",
"t.	c #333333",
"u.	c #313131",
"v.	c #222222",
"w.	c #212121",
"x.	c #131313",
"y.	c #101010",
"z.	c #0D0D0D",
"A.	c #000000",
"B.	c #000000",
"C.	c #000000",
"D.	c #000000",
"E.	c #000000",
"F.	c #000000",
"G.	c #000000",
"H.	c #000000",
"I.	c #000000",
"J.	c #000000",
"K.	c #000000",
"L.	c #000000",
"M.	c #000000",
"N.	c #000000",
"O.	c #000000",
"P.	c #000000",
"Q.	c #000000",
"R.	c #000000",
"S.	c #000000",
"T.	c #000000",
"U.	c #000000",
"V.	c #000000",
"W.	c #000000",
"X.	c #000000",
"Y.	c #000000",
"Z.	c #000000",
"`.	c #000000",
" +	c #000000",
".+	c #000000",
"++	c #000000",
"@+	c #000000",
"#+	c #000000",
"$+	c #000000",
"%+	c #000000",
"&+	c #000000",
"*+	c #000000",
"=+	c #000000",
"-+	c #000000",
";+	c #000000",
">+	c #000000",
",+	c #000000",
"'+	c #000000",
")+	c #000000",
"!+	c #000000",
"~+	c #000000",
"{+	c #000000",
"]+	c #000000",
"^+	c #000000",
"/+	c #000000",
"(+	c #000000",
"_+	c #000000",
":+	c #000000",
"<+	c #000000",
"[+	c #000000",
"}+	c #000000",
"|+	c #000000",
"1+	c #000000",
"2+	c #000000",
"3+	c #000000",
"4+	c #000000",
"5+	c #000000",
"6+	c #000000",
"7+	c #000000",
"8+	c #000000",
"9+	c #000000",
"0+	c #000000",
"a+	c #000000",
"b+	c #000000",
"c+	c #000000",
"d+	c #000000",
"e+	c #000000",
"f+	c #000000",
"g+	c #000000",
"h+	c #000000",
"i+	c #000000",
"j+	c #000000",
"k+	c #000000",
"l+	c #000000",
"m+	c #000000",
"n+	c #000000",
"o+	c #000000",
"p+	c #000000",
"q+	c #000000",
"r+	c #000000",
"s+	c #000000",
"t+	c #000000",
"u+	c #000000",
"v+	c #000000",
"w+	c #000000",
"x+	c #000000",
"y+	c #000000",
"z+	c #000000",
"A+	c #000000",
"B+	c #000000",
"C+	c #000000",
"D+	c #000000",
"E+	c #000000",
"F+	c #000000",
"G+	c #000000",
"H+	c #000000",
"5 5 5 5 5 5 5 5 5 5 5 5 5 5 5 ",
"5 5 5 5 5 5 5 5 5 5 5 5 5 5 5 ",
"5 5 g.g.q.z.u.u.q.o.g.g.5 5 5 ",
"g.g.g.g.g.g.q.u.A.A.q.q.o.g.5 ",
"5 5 5 5 5 g.g.g.g.q.z.A.A.q.g.",
"5 5 5 g.o.q.s.} z.s.g.q.A.A.q.",
"5 g.o.s.s.A.A.A.A.} u.q.g.q.u.",
"g.o.s.q.A.3.A.A.A.s.} u.o.i.5 ",
"g.q.o.i.s.q.A.A.s.q.s.A.z.o.g.",
"5 g.q.g.i.o.q.s.A.o.g.q.A.o.g.",
"5 5 g.o.9.c.g.i.g.c.7.q.o.g.g.",
"5 5 5 5 g.9.7.7.3.7.g.i.g.5 5 ",
"5 5 5 5 5 5 5 5 5 5 5 5 5 5 5 ",
"5 5 5 5 5 5 5 5 5 5 5 5 5 5 5 "};
