/* XPM */
static char * written_pic_xpm[] = {
"20 20 17 1",
" 	c None",
".	c #999999",
"+	c #666633",
"@	c #5F5F5F",
"#	c #FFCCCC",
"$	c #996666",
"%	c #663333",
"&	c #CC9900",
"*	c #FFFFFF",
"=	c #F8F8F8",
"-	c #000000",
";	c #9999FF",
">	c #CCCCFF",
",	c #FFFF00",
"'	c #FFFFCC",
")	c #FFCC33",
"!	c #CC9933",
"                    ",
"                    ",
"                    ",
"           .+.      ",
"          @##$%     ",
"         .&#$$%     ",
"         @*=$-@     ",
"        .&;>$%.     ",
"        @*,$-@      ",
"       .&')$%.      ",
"       @*,!-@       ",
"      .&,)$%.       ",
"      @*)!-@        ",
"      @*)$%.        ",
"      @'.@@         ",
"      @!+.          ",
"      -.            ",
"                    ",
"                    ",
"                    "};
