/* XPM */
static char * zoom_tool_xpm[] = {
"17 15 15 1",
" 	c None",
".	c #9C9C9C",
"+	c #646464",
"@	c #333366",
"#	c #63639C",
"$	c #9C9CCE",
"%	c #CCCCFF",
"&	c #131313",
"*	c #DDDDDD",
"=	c #FFFBFB",
"-	c #C7C7EB",
";	c #0D0D0D",
">	c #040404",
",	c #5D7171",
"'	c #5E5E5E",
"     ....        ",
"   .+@@@@+       ",
"  .@#$%%$#&      ",
"  +#%%%*=*$+     ",
" .@$%=*===-&.    ",
" .@-%*=*==*;.    ",
" .@-%**=***&.    ",
" .@$%*****$&.    ",
"  +@%%**>*,+     ",
"   &+$%%$,&%=    ",
"   .+&&&&+.&.=   ",
"     ..... '&.=  ",
"           .'&.  ",
"            .'&. ",
"             .'& "};
