/* XPM */
static char *zoomin[] = {
/* width height num_colors chars_per_pixel */
"    32    32   2            1",
/* colors */
". c #000000000000",
"# c none",
/* pixels */
"####....########################",
"##..####..######################",
"#.########.#####################",
"#.###..###.#####################",
".####..####.####################",
".##......##.####################",
".##......##.####################",
".####..####.####################",
"#.###..###.#####################",
"#.########.#####################",
"##..####.....###################",
"####....##.##.##################",
"##########.##..#################",
"###########...#.################",
"############.###.###############",
"#############.###.##############",
"##############.###.#############",
"###############.##.#############",
"################..##############",
"################################",
"################################",
"################################",
"################################",
"################################",
"################################",
"################################",
"################################",
"################################",
"################################",
"################################",
"################################",
"################################"
};
